<?xml version="1.0" standalone="yes"?>

<svg version="1.1" viewBox="0.0 0.0 960.0 720.0" fill="none" stroke="none" stroke-linecap="square" stroke-miterlimit="10" xmlns="http://www.w3.org/2000/svg" xmlns:xlink="http://www.w3.org/1999/xlink"><clipPath id="p.0"><path d="m0 0l960.0 0l0 720.0l-960.0 0l0 -720.0z" clip-rule="nonzero"></path></clipPath><g clip-path="url(#p.0)"><path fill="#000000" fill-opacity="0.0" d="m0 0l960.0 0l0 720.0l-960.0 0z" fill-rule="nonzero"></path><path fill="#cfe2f3" d="m512.28345 479.17978l0 0c0 -19.603912 15.892151 -35.496063 35.496094 -35.496063l0 0c9.414124 0 18.442688 3.7397766 25.099487 10.396576c6.6567993 6.6567993 10.396545 15.685364 10.396545 25.099487l0 0c0 19.603943 -15.89209 35.496063 -35.496033 35.496063l0 0c-19.603943 0 -35.496094 -15.89212 -35.496094 -35.496063z" fill-rule="nonzero"></path><path stroke="#000000" stroke-width="2.0" stroke-linejoin="round" stroke-linecap="butt" d="m512.28345 479.17978l0 0c0 -19.603912 15.892151 -35.496063 35.496094 -35.496063l0 0c9.414124 0 18.442688 3.7397766 25.099487 10.396576c6.6567993 6.6567993 10.396545 15.685364 10.396545 25.099487l0 0c0 19.603943 -15.89209 35.496063 -35.496033 35.496063l0 0c-19.603943 0 -35.496094 -15.89212 -35.496094 -35.496063z" fill-rule="nonzero"></path><path fill="#cfe2f3" d="m376.7244 479.17978l0 0c0 -19.603912 15.892151 -35.496063 35.496063 -35.496063l0 0c9.414154 0 18.442719 3.7397766 25.099518 10.396576c6.6567993 6.6567993 10.396545 15.685364 10.396545 25.099487l0 0c0 19.603943 -15.89212 35.496063 -35.496063 35.496063l0 0c-19.603912 0 -35.496063 -15.89212 -35.496063 -35.496063z" fill-rule="nonzero"></path><path stroke="#000000" stroke-width="2.0" stroke-linejoin="round" stroke-linecap="butt" d="m376.7244 479.17978l0 0c0 -19.603912 15.892151 -35.496063 35.496063 -35.496063l0 0c9.414154 0 18.442719 3.7397766 25.099518 10.396576c6.6567993 6.6567993 10.396545 15.685364 10.396545 25.099487l0 0c0 19.603943 -15.89212 35.496063 -35.496063 35.496063l0 0c-19.603912 0 -35.496063 -15.89212 -35.496063 -35.496063z" fill-rule="nonzero"></path><path fill="#cfe2f3" d="m376.7244 240.8202l0 0c0 -19.603928 15.892151 -35.496063 35.496063 -35.496063l0 0c9.414154 0 18.442719 3.7397614 25.099518 10.396561c6.6567993 6.6567993 10.396545 15.685364 10.396545 25.099503l0 0c0 19.603928 -15.89212 35.49608 -35.496063 35.49608l0 0c-19.603912 0 -35.496063 -15.892151 -35.496063 -35.49608z" fill-rule="nonzero"></path><path stroke="#000000" stroke-width="2.0" stroke-linejoin="round" stroke-linecap="butt" d="m376.7244 240.8202l0 0c0 -19.603928 15.892151 -35.496063 35.496063 -35.496063l0 0c9.414154 0 18.442719 3.7397614 25.099518 10.396561c6.6567993 6.6567993 10.396545 15.685364 10.396545 25.099503l0 0c0 19.603928 -15.89212 35.49608 -35.496063 35.49608l0 0c-19.603912 0 -35.496063 -15.892151 -35.496063 -35.49608z" fill-rule="nonzero"></path><path fill="#cfe2f3" d="m512.28345 240.8202l0 0c0 -19.603928 15.892151 -35.496063 35.496094 -35.496063l0 0c9.414124 0 18.442688 3.7397614 25.099487 10.396561c6.6567993 6.6567993 10.396545 15.685364 10.396545 25.099503l0 0c0 19.603928 -15.89209 35.49608 -35.496033 35.49608l0 0c-19.603943 0 -35.496094 -15.892151 -35.496094 -35.49608z" fill-rule="nonzero"></path><path stroke="#000000" stroke-width="2.0" stroke-linejoin="round" stroke-linecap="butt" d="m512.28345 240.8202l0 0c0 -19.603928 15.892151 -35.496063 35.496094 -35.496063l0 0c9.414124 0 18.442688 3.7397614 25.099487 10.396561c6.6567993 6.6567993 10.396545 15.685364 10.396545 25.099503l0 0c0 19.603928 -15.89209 35.49608 -35.496033 35.49608l0 0c-19.603943 0 -35.496094 -15.892151 -35.496094 -35.49608z" fill-rule="nonzero"></path><path fill="#cfe2f3" d="m305.73227 360.27167l0 0c0 -19.603943 15.892151 -35.496063 35.496063 -35.496063l0 0c9.414154 0 18.442719 3.739746 25.099518 10.396545c6.6567993 6.6567993 10.396545 15.685364 10.396545 25.099518l0 0c0 19.603912 -15.89212 35.496063 -35.496063 35.496063l0 0c-19.603912 0 -35.496063 -15.892151 -35.496063 -35.496063z" fill-rule="nonzero"></path><path stroke="#000000" stroke-width="2.0" stroke-linejoin="round" stroke-linecap="butt" d="m305.73227 360.27167l0 0c0 -19.603943 15.892151 -35.496063 35.496063 -35.496063l0 0c9.414154 0 18.442719 3.739746 25.099518 10.396545c6.6567993 6.6567993 10.396545 15.685364 10.396545 25.099518l0 0c0 19.603912 -15.89212 35.496063 -35.496063 35.496063l0 0c-19.603912 0 -35.496063 -15.892151 -35.496063 -35.496063z" fill-rule="nonzero"></path><path fill="#cfe2f3" d="m583.2756 360.27167l0 0c0 -19.603943 15.892151 -35.496063 35.496094 -35.496063l0 0c9.414124 0 18.442688 3.739746 25.099487 10.396545c6.6567993 6.6567993 10.396545 15.685364 10.396545 25.099518l0 0c0 19.603912 -15.89209 35.496063 -35.496033 35.496063l0 0c-19.603943 0 -35.496094 -15.892151 -35.496094 -35.496063z" fill-rule="nonzero"></path><path stroke="#000000" stroke-width="2.0" stroke-linejoin="round" stroke-linecap="butt" d="m583.2756 360.27167l0 0c0 -19.603943 15.892151 -35.496063 35.496094 -35.496063l0 0c9.414124 0 18.442688 3.739746 25.099487 10.396545c6.6567993 6.6567993 10.396545 15.685364 10.396545 25.099518l0 0c0 19.603912 -15.89209 35.496063 -35.496033 35.496063l0 0c-19.603943 0 -35.496094 -15.892151 -35.496094 -35.496063z" fill-rule="nonzero"></path><path fill="#000000" fill-opacity="0.0" d="m375.77692 205.32545l73.13385 0l0 72.18898l-73.13385 0z" fill-rule="nonzero"></path><path fill="#000000" d="m423.23056 246.45306l4.546875 1.140625q-1.421875 5.609375 -5.140625 8.5625q-3.71875 2.9375 -9.078125 2.9375q-5.5625 0 -9.046875 -2.265625q-3.46875 -2.265625 -5.296875 -6.546875q-1.8125 -4.296875 -1.8125 -9.21875q0 -5.375 2.046875 -9.359375q2.0625 -4.0 5.84375 -6.078125q3.78125 -2.078125 8.328125 -2.078125q5.15625 0 8.671875 2.625q3.515625 2.625 4.90625 7.390625l-4.484375 1.046875q-1.1875 -3.75 -3.46875 -5.453125q-2.265625 -1.71875 -5.71875 -1.71875q-3.953125 0 -6.625 1.90625q-2.65625 1.890625 -3.734375 5.09375q-1.078125 3.203125 -1.078125 6.59375q0 4.390625 1.28125 7.65625q1.28125 3.265625 3.96875 4.890625q2.703125 1.609375 5.84375 1.609375q3.8125 0 6.453125 -2.203125q2.65625 -2.203125 3.59375 -6.53125z" fill-rule="nonzero"></path><path fill="#000000" fill-opacity="0.0" d="m512.91077 442.48557l73.13385 0l0 72.188995l-73.13385 0z" fill-rule="nonzero"></path><path fill="#000000" d="m560.5597 491.97253q3.15625 2.1875 5.828125 3.1875l-1.328125 3.171875q-3.703125 -1.328125 -7.390625 -4.21875q-3.8125 2.140625 -8.4375 2.140625q-4.65625 0 -8.453125 -2.25q-3.796875 -2.265625 -5.859375 -6.34375q-2.046875 -4.078125 -2.046875 -9.1875q0 -5.078125 2.0625 -9.25q2.0625 -4.171875 5.875 -6.34375q3.8125 -2.1875 8.515625 -2.1875q4.765625 0 8.578125 2.265625q3.828125 2.25 5.828125 6.328125q2.0 4.0625 2.0 9.171875q0 4.234375 -1.296875 7.625q-1.28125 3.390625 -3.875 5.890625zm-10.015625 -5.8125q3.9375 1.109375 6.5 3.28125q4.0 -3.65625 4.0 -10.984375q0 -4.171875 -1.421875 -7.28125q-1.40625 -3.125 -4.140625 -4.84375q-2.734375 -1.734375 -6.125 -1.734375q-5.09375 0 -8.453125 3.484375q-3.34375 3.484375 -3.34375 10.390625q0 6.703125 3.3125 10.296875q3.328125 3.578125 8.484375 3.578125q2.4375 0 4.59375 -0.90625q-2.140625 -1.390625 -4.5 -1.96875l1.09375 -3.3125z" fill-rule="nonzero"></path><path fill="#000000" fill-opacity="0.0" d="m305.73227 323.90552l73.13388 0l0 72.188965l-73.13388 0z" fill-rule="nonzero"></path><path fill="#000000" d="m330.0883 377.08l0 -34.359375l24.84375 0l0 4.046875l-20.296875 0l0 10.53125l19.015625 0l0 4.03125l-19.015625 0l0 11.6875l21.09375 0l0 4.0625l-25.640625 0z" fill-rule="nonzero"></path><path fill="#000000" fill-opacity="0.0" d="m581.13385 323.90552l73.13385 0l0 72.188965l-73.13385 0z" fill-rule="nonzero"></path><path fill="#000000" d="m615.5172 377.08l0 -34.359375l4.546875 0l0 34.359375l-4.546875 0z" fill-rule="nonzero"></path><path fill="#000000" fill-opacity="0.0" d="m375.77692 442.4882l73.13385 0l0 72.188995l-73.13385 0z" fill-rule="nonzero"></path><path fill="#000000" d="m421.2618 461.30328l4.546875 0l0 19.84375q0 5.1875 -1.171875 8.234375q-1.171875 3.046875 -4.234375 4.96875q-3.046875 1.90625 -8.015625 1.90625q-4.828125 0 -7.90625 -1.671875q-3.0625 -1.671875 -4.375 -4.8125q-1.3125 -3.15625 -1.3125 -8.625l0 -19.84375l4.546875 0l0 19.828125q0 4.46875 0.828125 6.59375q0.828125 2.125 2.859375 3.28125q2.03125 1.140625 4.953125 1.140625q5.015625 0 7.140625 -2.265625q2.140625 -2.28125 2.140625 -8.75l0 -19.828125z" fill-rule="nonzero"></path><path fill="#000000" fill-opacity="0.0" d="m512.91077 205.32545l73.13385 0l0 72.18898l-73.13385 0z" fill-rule="nonzero"></path><path fill="#000000" d="m539.6456 258.49994l0 -34.359375l4.546875 0l0 30.296875l16.921875 0l0 4.0625l-21.46875 0z" fill-rule="nonzero"></path><path fill="#000000" fill-opacity="0.0" d="m448.91077 241.41995l64.0 0" fill-rule="nonzero"></path><path stroke="#000000" stroke-width="2.0" stroke-linejoin="round" stroke-linecap="butt" d="m448.91077 241.41995l64.0 0" fill-rule="nonzero"></path><path fill="#000000" fill-opacity="0.0" d="m448.91077 478.58267l64.0 0" fill-rule="nonzero"></path><path stroke="#000000" stroke-width="2.0" stroke-linejoin="round" stroke-linecap="butt" d="m448.91077 478.58267l64.0 0" fill-rule="nonzero"></path><path fill="#000000" fill-opacity="0.0" d="m393.70602 271.79266l-31.559052 58.078735" fill-rule="nonzero"></path><path stroke="#000000" stroke-width="2.0" stroke-linejoin="round" stroke-linecap="butt" d="m393.70602 271.79266l-31.559052 58.078735" fill-rule="nonzero"></path><path fill="#000000" fill-opacity="0.0" d="m566.03534 271.79266l31.559021 58.078735" fill-rule="nonzero"></path><path stroke="#000000" stroke-width="2.0" stroke-linejoin="round" stroke-linecap="butt" d="m566.03534 271.79266l31.559021 58.078735" fill-rule="nonzero"></path><path fill="#000000" fill-opacity="0.0" d="m388.90814 451.28873l-31.559052 -58.078766" fill-rule="nonzero"></path><path stroke="#000000" stroke-width="2.0" stroke-linejoin="round" stroke-linecap="butt" d="m388.90814 451.28873l-31.559052 -58.078766" fill-rule="nonzero"></path><path fill="#000000" fill-opacity="0.0" d="m570.5591 451.28873l31.559021 -58.078766" fill-rule="nonzero"></path><path stroke="#000000" stroke-width="2.0" stroke-linejoin="round" stroke-linecap="butt" d="m570.5591 451.28873l31.559021 -58.078766" fill-rule="nonzero"></path><path fill="#000000" fill-opacity="0.0" d="m378.86615 360.0l202.2677 0" fill-rule="nonzero"></path><path stroke="#000000" stroke-width="2.0" stroke-linejoin="round" stroke-linecap="butt" d="m378.86615 360.0l202.2677 0" fill-rule="nonzero"></path><path fill="#000000" fill-opacity="0.0" d="m436.73227 266.0551l89.66928 185.00787" fill-rule="nonzero"></path><path stroke="#000000" stroke-width="2.0" stroke-linejoin="round" stroke-linecap="butt" d="m436.73227 266.0551l89.66928 185.00787" fill-rule="nonzero"></path><path fill="#000000" fill-opacity="0.0" d="m524.9673 267.48938l-89.66925 185.00787" fill-rule="nonzero"></path><path stroke="#000000" stroke-width="2.0" stroke-linejoin="round" stroke-linecap="butt" d="m524.9673 267.48938l-89.66925 185.00787" fill-rule="nonzero"></path></g></svg>

